Coordinates
version=1
nRows=16
nColumns=33
inDegrees=yes

Units are S.I. units (second, meters, Newtons, ...)
Angles are in degrees.

endheader
time	ground_thorax_rot_x	ground_thorax_rot_y	ground_thorax_rot_z	ground_thorax_tx	ground_thorax_ty	ground_thorax_tz	clav_prot_r	clav_elev_r	scapula_abduction_r	scapula_elevation_r	scapula_upward_rot_r	scapula_winging_r	shoulder_elv_r	plane_of_elev_r	axial_rot_r	elbow_flexion_r	pro_sup_r	wrist_flex_r	wrist_dev_r	clav_prot_l	clav_elev_l	scapula_abduction_l	scapula_elevation_l	scapula_upward_rot_l	scapula_winging_l	shoulder_elv_l	plane_of_elev_l	axial_rot_l	elbow_flexion_l	pro_sup_l	wrist_flex_l	wrist_dev_l
      4.09000000	    -40.25436441	    -11.10454483	     15.97682750	   -227.65525826	    821.37295872	      1.93542916	      9.41445712	    -45.00000000	     39.30432712	    -45.00000000	    -45.00000000	   3499.14481808	  -1365.93164729	     32.04439168	     70.16826170	   1824.97775454	    147.68741967	     13.18842766	      4.49988353	     15.60569437	     38.22182162	    -37.92198217	    -45.00000000	    -45.00000000	  -2794.67610035	    791.76076719	     26.27135012	     -3.85386877	   1446.84584583	     25.31674023	      7.45023029	    -22.63406648
      4.10000000	    -40.22018512	    -11.23808570	     16.02691843	   -227.71389648	    820.54509189	      1.83404521	      9.26797317	    -45.00000000	     39.30356025	    -45.00000000	    -45.00000000	   3499.37098838	  -1365.91997786	     31.81728033	     70.40297492	   1825.05671492	    147.76706634	     13.22623238	      4.54994002	     15.41792475	     38.25350031	    -37.62528464	    -45.00000000	    -45.00000000	  -2794.83808486	    791.80135956	     26.34646970	     -3.71891458	   1446.77250457	     25.41527177	      7.33220512	    -22.60924697
      4.11000000	    -40.20268432	    -11.29750326	     16.20054865	   -227.52129060	    819.72308541	      1.70544033	      9.38488273	    -45.00000000	     39.18485457	    -45.00000000	    -45.00000000	   3499.23326236	  -1366.19647049	     31.86549836	     70.61232672	   1824.96879753	    148.06069813	     13.19570983	      4.60601694	     15.55948998	     38.10495734	    -37.75816225	    -45.00000000	    -45.00000000	  -2794.86248115	    791.66746967	     26.31753671	     -3.46832566	   1446.75269689	     25.50941840	      7.25759661	    -22.56218038
      4.12000000	    -40.19489404	    -11.47025430	     16.19973590	   -227.11205122	    818.90697377	      1.55166138	      9.32367465	    -45.00000000	     39.20617350	    -45.00000000	    -45.00000000	   3499.50127927	  -1366.13780263	     31.73592391	     70.82348320	   1825.10545531	    148.54206204	     13.15626764	      4.68912359	     15.55655627	     38.28404642	    -37.53950206	    -45.00000000	    -45.00000000	  -2794.98529360	    791.71045077	     26.38407040	     -3.30415207	   1446.73880249	     25.63128694	      7.17929894	    -22.57278001
      4.13000000	    -40.16811572	    -11.40328898	     16.24159532	   -226.52876927	    818.10101974	      1.37481343	      9.47674317	    -45.00000000	     39.28258035	    -45.00000000	    -45.00000000	   3499.31859602	  -1366.37176404	     31.79143382	     71.02991640	   1825.20945045	    149.37295727	     13.10830650	      4.77291525	     15.36726944	     38.09495134	    -37.62987974	    -45.00000000	    -45.00000000	  -2795.12993433	    791.70540128	     26.43439157	     -2.96094412	   1446.85607478	     25.79440141	      7.04738379	    -22.56561256
      4.14000000	    -40.20028087	    -11.39637090	     16.29026841	   -225.82161191	    817.31437180	      1.17776386	      9.46355715	    -45.00000000	     39.08426250	    -45.00000000	    -45.00000000	   3499.41758905	  -1366.47807434	     31.77123936	     71.16413215	   1825.16760366	    150.54867036	     13.07291127	      4.91953894	     15.43037785	     38.15565006	    -37.74690168	    -45.00000000	    -45.00000000	  -2795.17557406	    791.63883441	     26.54301669	     -2.70315576	   1446.88635543	     26.08161526	      6.93729035	    -22.58537835
      4.15000000	    -40.19482974	    -11.53997987	     16.34187547	   -225.04446804	    816.56151918	      0.96455196	      9.51438682	    -45.00000000	     39.06833562	    -45.00000000	    -45.00000000	   3499.49044522	  -1366.56034693	     31.81469968	     71.29965105	   1825.19275136	    151.80788159	     13.03702448	      5.05457035	     15.36811364	     38.12443065	    -37.73245538	    -45.00000000	    -45.00000000	  -2795.28532041	    791.65264432	     26.53228353	     -2.44936305	   1446.93431936	     26.41390472	      6.76546018	    -22.58406734
      4.16000000	    -40.14659058	    -11.72298125	     16.50978414	   -224.24831174	    815.86166781	      0.73919095	      9.52840004	    -45.00000000	     39.24527340	    -45.00000000	    -45.00000000	   3499.50741564	  -1366.60549675	     31.67321507	     71.37555655	   1825.36672594	    152.97046532	     12.98141587	      5.17626090	     15.32841479	     38.08184684	    -37.63634048	    -45.00000000	    -45.00000000	  -2795.48313325	    791.70730458	     26.52392006	     -2.20274392	   1446.99773027	     26.74127360	      6.55879761	    -22.56861872
      4.17000000	    -40.19137286	    -11.73846423	     16.46864461	   -223.47019971	    815.23374133	      0.50470800	      9.43501806	    -45.00000000	     39.08224081	    -45.00000000	    -45.00000000	   3499.66597208	  -1366.63794928	     31.76765603	     71.28479550	   1825.31074305	    154.27892730	     12.94295751	      5.33147183	     15.49254923	     38.16138643	    -37.77807750	    -45.00000000	    -45.00000000	  -2795.42891826	    791.60862053	     26.61018582	     -2.07329497	   1447.01011957	     27.17299881	      6.41886677	    -22.57724410
      4.18000000	    -40.19904189	    -11.81528602	     16.51493768	   -222.73750349	    814.70278633	      0.26502552	      9.39812141	    -45.00000000	     39.10144787	    -45.00000000	    -45.00000000	   3499.73475532	  -1366.68167537	     31.76477192	     71.14219234	   1825.33288272	    155.53972528	     12.89861939	      5.45301666	     15.53970302	     38.14347316	    -37.76104814	    -45.00000000	    -45.00000000	  -2795.53709685	    791.62942509	     26.64766476	     -1.95810130	   1447.04936780	     27.60020934	      6.23784702	    -22.56872758
      4.19000000	    -40.21671721	    -11.91506202	     16.63650021	   -222.05809409	    814.28895925	      0.02342194	      9.29194073	    -45.00000000	     39.16384375	    -45.00000000	    -45.00000000	   3499.83132010	  -1366.69225966	     31.66865251	     70.83857049	   1825.35673983	    156.65704071	     12.82276452	      5.59997336	     15.74144826	     38.19700827	    -37.63048629	    -45.00000000	    -45.00000000	  -2795.56378529	    791.72884385	     26.84434943	     -1.96271432	   1447.01046912	     27.98941357	      6.10636424	    -22.55325046
      4.20000000	    -40.33409031	    -11.76339900	     16.57216425	   -221.42030833	    814.00502042	     -0.21784260	      9.32032901	    -45.00000000	     38.94114431	    -45.00000000	    -45.00000000	   3499.86674736	  -1366.76416308	     31.86550283	     70.43165300	   1825.27748003	    157.79051748	     12.77226973	      5.69339422	     15.73085248	     38.20543505	    -37.96950634	    -45.00000000	    -45.00000000	  -2795.53211612	    791.68451072	     26.76697971	     -1.97835275	   1447.09122798	     28.35608470	      5.99832499	    -22.56765546
      4.21000000	    -40.32615978	    -11.80597467	     16.67650550	   -220.80131422	    813.85601873	     -0.45539731	      9.17917279	    -45.00000000	     38.91966891	    -45.00000000	    -45.00000000	   3499.96170151	  -1366.69744700	     31.86654028	     69.88818378	   1825.28867005	    158.92034336	     12.68035667	      5.80222812	     15.97849626	     38.29008922	    -38.04259877	    -45.00000000	    -45.00000000	  -2795.43543848	    791.61992706	     26.82959240	     -2.06131657	   1447.13342160	     28.67346611	      5.91237497	    -22.56653270
      4.22000000	    -40.33047667	    -11.64120026	     16.63901719	   -220.16757789	    813.83644053	     -0.68669179	      9.24865629	    -45.00000000	     38.83221118	    -45.00000000	    -45.00000000	   3499.95746898	  -1366.70376642	     32.07028121	     69.30608154	   1825.19858802	    160.01760073	     12.60977725	      5.86380491	     15.90784950	     38.26917551	    -38.19237312	    -45.00000000	    -45.00000000	  -2795.52944959	    791.60824969	     26.74689038	     -2.15455880	   1447.30458032	     28.90036561	      5.85790636	    -22.59647754
      4.23000000	    -40.26383618	    -11.76076744	     16.78429310	   -219.48722960	    813.93175252	     -0.90848001	      9.10098010	    -45.00000000	     38.81880487	    -45.00000000	    -45.00000000	   3500.15800470	  -1366.46866190	     32.01761474	     68.70693684	   1825.25572750	    161.11344929	     12.50742450	      5.88877579	     16.03559615	     38.30470820	    -38.02834214	    -45.00000000	    -45.00000000	  -2795.50692247	    791.63277319	     26.88647279	     -2.25490952	   1447.31882027	     29.04940135	      5.82604265	    -22.57373470
      4.24000000	    -40.33480929	    -11.48631173	     16.64366490	   -218.72680255	    814.12028872	     -1.12008914	      9.14048005	    -45.00000000	     38.73770784	    -45.00000000	    -45.00000000	   3500.18127832	  -1366.53179607	     32.31158698	     68.12028062	   1825.19047491	    162.25590620	     12.43546734	      5.89131332	     15.89042182	     38.25941224	    -38.32331513	    -45.00000000	    -45.00000000	  -2795.59336527	    791.71010307	     26.73248774	     -2.33339502	   1447.50822475	     29.10298252	      5.84338911	    -22.62341906
